<svg xmlns="http://www.w3.org/2000/svg" height="24" viewBox="0 -960 960 960" width="24"><path d="M221-283q56-42 122-64.5T480-370q71 0 137 22.5T739-283q35-46 51-94.5T806-480q0-134-96-230t-230-96q-134 0-230 96t-96 230q0 54 16 102.5t51 94.5Zm259.08-133Q411-416 363.5-463.42 316-510.839 316-579.92q0-69.08 47.42-116.58 47.419-47.5 116.5-47.5 69.08 0 116.58 47.42 47.5 47.419 47.5 116.5 0 69.08-47.42 116.58-47.419 47.5-116.5 47.5ZM480-48q-88 0-167.035-34.263-79.036-34.263-137.5-93Q117-234 82.5-313T48-480.5q0-88.5 34.5-167t92.965-137.237q58.464-58.737 137.5-93Q392-912 480.5-912t167 34.5q78.5 34.5 137 93t93 136.919Q912-569.162 912-480q0 88-34.263 167.035-34.263 79.036-93 137.5Q726-117 647.581-82.5 569.162-48 480-48Z"/></svg>