<svg version="1.2" xmlns="http://www.w3.org/2000/svg" viewBox="0 0 960 960" width="960" height="960">
	<title>arrow_back_FILL1_wght400_GRAD200_opsz24-svg</title>
	<style>
		.s0 { fill: #f1f2f8 } 
	</style>
	<path id="Layer" class="s0" d="m333 534l184 184q16 16 16 38 0 22-16 38-16 16-38 16-22 0-38-16l-276-276q-8-8-11.5-17-3.5-9-3.5-20 0-11 3.5-20 3.5-9 11.5-17l278-278q16-16 38-16 22 0 38 16 16 16 16 38 0 22-16 38l-186 186h446q22 0 37.5 15.5 15.5 15.5 15.5 37.5 0 22-15.5 37.5-15.5 15.5-37.5 15.5z"/>
</svg>