<svg xmlns="http://www.w3.org/2000/svg" height="24" viewBox="0 -960 960 960" width="24"><path d="M480-122q-20 0-38.5-7T408-150l-84-77q-101-93-188.5-191T48-642q0-105.964 72-176.982T297.51-890Q357-890 404-866q47 24 76 50 29-26 76-50t106.49-24Q768-890 840-818.982 912-747.964 912-642q0 126-87.5 224T637-228l-85 78q-15 14-33.5 21t-38.5 7Zm-50-582q-17-29-51-54.5T298-784q-61.714 0-102.857 40T154-641.857Q154-588 191.5-529t90 115.5q52.5 56.5 108 105T480-228q35-32 90.5-80.5t108-105Q731-470 768.5-529T806-641.857Q806-704 764.857-744T662-784q-47 0-81.5 25.5T530-704q-8 14-21.333 21.5-13.334 7.5-28 7.5-14.667 0-28.167-7.5Q439-690 430-704Zm50 198Z"/></svg>