<svg xmlns="http://www.w3.org/2000/svg" height="24" viewBox="0 -960 960 960" width="24"><path d="M480-296q85 0 144.5-59.5T684-500q0-85-59.5-144.5T480-704q-85 0-144.5 59.5T276-500q0 85 59.5 144.5T480-296Zm-.118-94Q434-390 402-422.118q-32-32.117-32-78Q370-546 402.118-578q32.117-32 78-32Q526-610 558-577.882q32 32.117 32 78Q590-454 557.882-422q-32.117 32-78 32ZM480-170q-144 0-264.5-76.5T29-451q-6-11-9-23.423-3-12.423-3-25.5t3-25.577q3-12.5 9-23.5 66-128 186.5-204.5T480-830q144 0 264.5 76.5T931-549q6 11 9 23.423 3 12.423 3 25.5t-3 25.577q-3 12.5-9 23.5-66 128-186.5 204.5T480-170Z"/></svg>